<?xml version="1.0" standalone="no"?>
<!DOCTYPE svg PUBLIC "-//W3C//DTD SVG 20010904//EN"
 "http://www.w3.org/TR/2001/REC-SVG-20010904/DTD/svg10.dtd">
<svg version="1.0" xmlns="http://www.w3.org/2000/svg"
 width="636.000000pt" height="1280.000000pt" viewBox="0 0 636.000000 1280.000000"
 preserveAspectRatio="xMidYMid meet">
<g transform="translate(0.000000,1280.000000) scale(0.100000,-0.100000)"
fill="#000000" stroke="none">
<path d="M2785 11999 c-228 -33 -541 -150 -768 -288 -470 -284 -845 -773
-1021 -1333 -99 -313 -151 -697 -127 -925 6 -57 16 -149 22 -205 22 -220 107
-519 231 -813 253 -604 843 -1486 1277 -1914 201 -198 369 -323 492 -367 69
-25 80 -49 50 -112 -23 -48 -98 -171 -165 -272 -47 -71 -46 -80 4 -78 23 1 46
-4 52 -10 7 -7 25 -12 41 -12 16 0 50 -7 76 -15 25 -8 58 -17 73 -20 l27 -5
-7 -98 c-4 -53 -7 -1101 -7 -2329 0 -2311 0 -2282 38 -2245 9 10 13 490 18
2300 3 1258 9 2299 13 2315 10 33 21 34 133 6 l85 -21 42 40 c22 21 77 58 121
81 44 24 84 46 89 51 10 10 -14 45 -102 149 -30 35 -76 97 -103 138 -62 95
-59 103 58 163 237 120 500 378 822 807 303 403 530 762 721 1138 284 560 383
921 384 1395 0 297 -26 550 -80 765 -28 112 -116 340 -180 466 -130 256 -254
429 -450 625 -342 343 -754 557 -1194 619 -117 16 -561 19 -665 4z"/>
</g>
</svg>
