<?xml version="1.0" standalone="no"?>
   <!DOCTYPE svg PUBLIC "-//W3C//DTD SVG 1.1//EN" 
   "http://www.w3.org/Graphics/SVG/1.1/DTD/svg11.dtd"><svg id="svg" version="1.1" width="2727" height="2322" xmlns="http://www.w3.org/2000/svg"><path d="M329.776 200.327 C 321.398 207.812,319.465 211.969,318.116 225.400 C 316.733 239.177,315.535 241.637,309.810 242.451 C 300.822 243.728,291.326 256.405,289.146 270.038 C 286.808 284.660,285.846 285.716,270.041 291.000 C 257.325 295.252,256.114 296.658,248.079 316.500 C 237.815 341.845,228.068 385.243,227.416 408.500 C 226.991 423.661,227.971 426.675,236.470 436.355 C 241.711 442.324,246.000 449.455,246.000 452.200 C 246.000 454.946,241.660 470.434,236.355 486.618 C 226.715 516.029,226.713 516.046,232.701 522.035 C 235.997 525.330,254.174 532.678,273.096 538.363 C 317.194 551.613,413.366 580.987,463.500 596.519 C 484.950 603.164,580.125 632.402,675.000 661.492 C 769.875 690.582,866.400 720.277,889.500 727.481 C 912.600 734.685,982.800 756.292,1045.500 775.496 C 1108.200 794.700,1175.025 815.233,1194.000 821.125 C 1212.975 827.016,1258.200 840.950,1294.500 852.089 L 1360.500 872.341 1362.330 928.920 C 1363.556 966.840,1362.880 997.373,1360.280 1021.500 C 1352.323 1095.328,1351.788 1112.204,1357.146 1120.380 C 1363.810 1130.551,1375.675 1136.192,1401.633 1141.530 C 1431.272 1147.625,1478.110 1163.374,1491.251 1171.663 C 1509.782 1183.353,1526.293 1204.741,1530.102 1221.989 C 1533.199 1236.016,1532.768 1239.796,1525.596 1261.500 C 1515.237 1292.852,1507.808 1342.989,1510.421 1363.909 C 1514.455 1396.195,1544.402 1442.009,1578.000 1467.295 C 1607.124 1489.213,1644.888 1503.900,1716.940 1521.330 C 1746.019 1528.364,1791.711 1528.830,1816.620 1522.345 C 1871.402 1508.085,1914.324 1472.718,1933.222 1426.268 L 1940.149 1409.242 1943.382 1418.516 C 1947.059 1429.065,1949.336 1429.821,1985.740 1432.583 C 2057.377 1438.017,2104.039 1475.603,2115.348 1536.979 C 2120.150 1563.041,2115.873 1587.368,2097.057 1641.000 C 2057.433 1753.944,2035.109 1799.962,1977.298 1887.865 C 1958.002 1917.205,1950.155 1933.581,1950.066 1944.694 C 1949.940 1960.377,1995.301 1999.473,2039.453 2021.735 C 2087.828 2046.126,2199.740 2085.376,2253.213 2096.706 C 2269.005 2100.052,2298.705 2106.820,2319.213 2111.745 C 2361.914 2122.001,2415.621 2128.488,2434.448 2125.665 C 2454.710 2122.626,2464.231 2107.602,2469.168 2070.874 C 2470.897 2058.018,2475.589 2028.600,2479.596 2005.500 C 2489.964 1945.731,2495.812 1849.777,2496.162 1733.716 C 2496.463 1633.913,2496.416 1633.107,2487.005 1579.444 C 2479.797 1538.343,2472.242 1508.937,2455.271 1455.932 C 2443.021 1417.670,2430.863 1377.170,2428.253 1365.932 C 2414.842 1308.183,2403.268 1246.725,2401.525 1224.000 C 2400.449 1209.975,2397.396 1191.222,2394.741 1182.327 C 2385.310 1150.736,2344.986 1120.750,2295.689 1108.669 L 2274.426 1103.458 2254.677 1074.261 C 2230.621 1038.699,2222.094 1029.757,2192.290 1008.843 C 2179.525 999.886,2168.351 991.377,2167.460 989.936 C 2165.340 986.506,2192.251 966.442,2217.394 952.708 C 2254.527 932.424,2310.972 915.014,2339.635 915.004 C 2345.493 915.001,2356.676 918.952,2366.139 924.366 C 2380.077 932.340,2383.598 933.235,2389.842 930.390 C 2397.911 926.714,2402.876 916.673,2400.714 908.405 C 2398.225 898.889,2376.824 882.477,2360.634 877.669 C 2330.658 868.767,2284.171 873.902,2250.496 889.834 C 2235.095 897.120,2216.466 900.431,2189.092 900.748 C 2171.023 900.957,2157.000 885.638,2157.000 865.691 C 2157.000 834.773,2138.558 823.447,2120.292 843.148 C 2115.778 848.016,2111.391 852.000,2110.542 852.000 C 2109.694 852.000,2109.000 847.186,2109.000 841.303 C 2109.000 835.419,2107.542 827.882,2105.761 824.553 C 2103.240 819.843,2103.620 817.288,2107.473 813.030 C 2110.196 810.021,2114.468 799.730,2116.967 790.159 C 2119.466 780.589,2123.898 767.976,2126.815 762.130 C 2131.908 751.921,2131.898 751.005,2126.551 738.992 C 2121.492 727.624,2119.210 725.893,2101.525 720.008 C 2090.822 716.447,2081.296 712.288,2080.356 710.766 C 2077.237 705.720,2070.000 707.904,2070.000 713.892 C 2070.000 721.359,2050.351 735.000,2039.594 735.000 C 2035.187 735.000,2017.613 730.076,2000.540 724.058 C 1972.918 714.321,1966.032 713.075,1938.000 712.743 C 1912.850 712.446,1899.545 710.475,1872.000 702.968 C 1853.025 697.797,1829.400 691.577,1819.500 689.147 C 1809.600 686.717,1781.250 678.325,1756.500 670.498 C 1731.750 662.671,1705.425 654.571,1698.000 652.498 C 1690.575 650.424,1653.450 638.991,1615.500 627.091 C 1480.657 584.808,1469.439 581.798,1459.180 585.143 C 1451.626 587.606,1445.942 586.792,1429.180 580.846 C 1417.806 576.811,1353.825 555.739,1287.000 534.018 C 1112.682 477.359,1031.742 450.929,997.500 439.487 C 981.000 433.974,914.850 412.427,850.500 391.605 C 786.150 370.784,717.975 348.530,699.000 342.152 C 680.025 335.775,626.363 318.165,579.750 303.020 C 500.496 277.268,495.000 275.024,495.000 268.409 C 495.000 256.199,483.039 247.363,429.716 220.179 C 383.832 196.788,375.760 193.642,358.875 192.567 C 341.135 191.437,339.125 191.973,329.776 200.327 M354.000 207.000 C 354.000 208.650,351.300 210.000,348.000 210.000 C 344.700 210.000,342.000 208.650,342.000 207.000 C 342.000 205.350,344.700 204.000,348.000 204.000 C 351.300 204.000,354.000 205.350,354.000 207.000 M399.092 257.721 C 432.867 267.467,494.925 286.969,537.000 301.058 C 579.075 315.147,680.325 348.440,762.000 375.043 C 843.675 401.645,944.925 434.689,987.000 448.474 C 1029.075 462.258,1124.250 493.313,1198.500 517.483 C 1272.750 541.654,1358.849 569.756,1389.831 579.933 L 1446.161 598.435 1444.234 607.468 C 1443.174 612.435,1440.962 618.170,1439.319 620.211 C 1437.675 622.252,1437.224 627.485,1438.317 631.840 C 1440.008 638.576,1439.507 639.453,1434.966 637.710 C 1432.030 636.583,1415.780 631.423,1398.856 626.243 L 1368.086 616.825 1369.894 601.443 L 1371.701 586.061 1291.101 559.699 C 1246.770 545.200,1206.586 532.136,1201.802 530.669 C 1197.019 529.201,1186.703 528.000,1178.878 528.000 C 1165.069 528.000,1164.510 528.354,1159.827 540.057 C 1155.755 550.235,1153.950 551.849,1148.251 550.409 C 1144.538 549.470,1104.409 537.450,1059.075 523.698 L 976.651 498.694 976.575 481.534 L 976.500 464.374 958.500 457.422 C 931.720 447.079,829.737 415.253,804.514 409.368 C 778.521 403.303,770.227 405.915,764.411 422.000 C 762.422 427.500,759.634 432.000,758.216 432.000 C 755.194 432.000,575.001 377.711,573.451 376.334 C 572.874 375.821,573.984 370.608,575.918 364.748 C 577.852 358.888,578.670 351.711,577.736 348.797 C 576.018 343.438,544.172 331.673,448.500 301.055 C 377.240 278.250,368.883 278.152,362.986 300.051 C 361.217 306.623,358.991 312.000,358.041 312.000 C 350.462 312.000,297.000 292.419,297.000 289.643 C 297.000 287.688,299.033 279.243,301.518 270.875 C 305.592 257.157,307.051 255.471,316.349 253.726 C 322.880 252.501,327.348 249.630,328.533 245.896 C 329.562 242.653,332.042 240.000,334.045 240.000 C 336.047 240.000,365.318 247.974,399.092 257.721 M364.173 325.633 C 466.302 356.678,533.862 377.124,666.000 416.976 C 1019.131 523.478,976.381 510.540,1165.500 568.136 C 1211.700 582.206,1268.400 599.320,1291.500 606.167 C 1368.687 629.045,1428.498 647.498,1429.852 648.852 C 1432.605 651.605,1423.605 678.000,1419.914 678.000 C 1417.801 678.000,1403.568 674.049,1388.286 669.220 C 1373.004 664.391,1336.875 653.492,1308.000 644.999 C 1279.125 636.507,1193.400 610.644,1117.500 587.526 C 1041.600 564.409,948.450 536.300,910.500 525.063 C 872.550 513.827,825.300 499.672,805.500 493.608 C 726.302 469.353,608.909 433.796,582.000 425.913 C 550.301 416.626,420.603 377.377,337.500 351.924 C 307.800 342.828,281.135 335.439,278.244 335.506 C 273.864 335.608,273.538 334.601,276.287 329.464 C 278.854 324.667,278.571 322.286,275.011 318.725 C 270.911 314.625,269.962 315.284,265.871 325.075 C 261.730 334.986,255.000 340.046,255.000 333.249 C 255.000 327.205,266.752 303.566,270.501 302.070 C 277.432 299.303,278.139 299.481,364.173 325.633 M459.746 316.309 C 530.363 339.980,538.415 343.630,539.477 352.456 C 540.406 360.179,539.976 360.471,530.678 358.429 C 513.308 354.614,427.619 326.483,423.750 323.326 C 418.413 318.970,418.971 306.000,424.496 306.000 C 426.968 306.000,442.831 310.639,459.746 316.309 M249.271 378.511 C 242.645 397.519,246.508 429.000,255.466 429.000 C 257.257 429.000,293.322 439.712,335.611 452.804 C 495.179 502.204,581.457 528.767,610.500 537.437 C 627.000 542.362,678.975 558.345,726.000 572.955 C 773.025 587.565,822.975 602.872,837.000 606.970 C 851.025 611.069,892.875 623.872,930.000 635.421 C 967.125 646.971,1062.300 676.246,1141.500 700.478 C 1368.506 769.932,1389.000 776.680,1389.000 781.973 C 1389.000 785.072,1387.342 786.006,1384.069 784.750 C 1381.357 783.709,1363.469 778.317,1344.319 772.768 C 1312.155 763.448,1229.967 738.260,1035.000 677.972 C 992.925 664.962,936.225 647.622,909.000 639.440 C 881.775 631.257,815.625 611.026,762.000 594.480 C 612.631 548.394,364.444 472.135,307.500 454.829 C 255.458 439.012,242.939 432.274,239.377 418.164 C 236.257 405.802,247.461 355.417,251.129 365.314 C 251.906 367.411,251.070 373.350,249.271 378.511 M302.010 382.421 C 321.530 388.153,371.250 403.061,412.500 415.551 C 453.750 428.041,505.050 443.429,526.500 449.746 C 547.950 456.063,622.200 478.410,691.500 499.405 C 760.800 520.400,851.250 547.659,892.500 559.981 C 933.750 572.304,1009.350 595.027,1060.500 610.478 C 1111.650 625.928,1210.538 655.791,1280.250 676.838 C 1369.240 703.707,1407.000 716.367,1407.000 719.338 C 1407.000 724.598,1394.843 765.000,1393.260 765.000 C 1390.702 765.000,1305.071 738.997,1233.000 716.336 C 1190.925 703.106,1143.675 688.551,1128.000 683.991 C 1112.325 679.432,1055.625 662.132,1002.000 645.548 C 856.867 600.663,562.115 510.048,541.500 503.977 C 531.600 501.061,477.600 484.492,421.500 467.157 C 365.400 449.822,308.523 432.519,295.108 428.706 C 273.238 422.491,271.058 421.224,274.032 416.462 C 276.514 412.488,276.393 410.193,273.550 407.350 C 270.484 404.284,269.249 404.361,267.153 407.753 C 265.724 410.065,265.358 414.103,266.339 416.728 C 267.883 420.858,267.442 420.946,263.062 417.383 C 258.066 413.319,255.885 401.666,260.250 402.355 C 266.438 403.332,270.000 401.559,270.000 397.500 C 270.000 395.000,267.333 393.000,264.000 393.000 C 260.700 393.000,258.000 391.738,258.000 390.195 C 258.000 386.178,263.599 372.000,265.186 372.000 C 265.920 372.000,282.491 376.690,302.010 382.421 M265.710 380.660 C 263.668 383.964,271.313 390.687,274.026 387.974 C 275.112 386.888,276.000 384.200,276.000 382.000 C 276.000 377.531,268.266 376.524,265.710 380.660 M289.338 387.261 C 286.247 392.264,293.200 398.000,297.339 393.861 C 300.800 390.400,298.634 384.000,294.000 384.000 C 292.545 384.000,290.447 385.468,289.338 387.261 M309.519 394.978 C 310.104 398.015,312.589 400.500,315.041 400.500 C 321.472 400.500,320.543 391.783,313.978 390.519 C 309.968 389.747,308.747 390.968,309.519 394.978 M275.000 398.000 C 271.197 401.803,273.023 405.000,279.000 405.000 C 282.333 405.000,285.000 403.000,285.000 400.500 C 285.000 395.933,278.654 394.346,275.000 398.000 M327.749 399.750 C 329.639 405.427,339.000 406.234,339.000 400.720 C 339.000 397.937,336.435 396.000,332.750 396.000 C 329.084 396.000,327.016 397.550,327.749 399.750 M294.222 401.863 C 289.487 404.789,292.515 411.000,298.677 411.000 C 303.237 411.000,304.686 403.396,300.607 400.875 C 299.290 400.061,296.418 400.506,294.222 401.863 M312.366 409.059 C 308.719 413.453,310.789 417.000,317.000 417.000 C 321.469 417.000,322.476 409.266,318.340 406.710 C 316.877 405.806,314.189 406.863,312.366 409.059 M331.338 411.261 C 328.247 416.264,335.200 422.000,339.339 417.861 C 342.800 414.400,340.634 408.000,336.000 408.000 C 334.545 408.000,332.447 409.468,331.338 411.261 M283.598 413.842 C 280.960 418.110,284.324 423.000,289.897 423.000 C 292.525 423.000,294.031 420.892,293.470 417.999 C 292.301 411.973,286.311 409.451,283.598 413.842 M300.000 421.500 C 300.000 424.590,301.966 426.061,305.250 425.429 C 311.574 424.211,311.175 418.887,304.658 417.530 C 301.941 416.964,300.000 418.618,300.000 421.500 M321.000 427.500 C 321.000 430.590,322.966 432.061,326.250 431.429 C 332.574 430.211,332.175 424.887,325.658 423.530 C 322.941 422.964,321.000 424.618,321.000 427.500 M878.250 443.170 C 925.383 458.059,932.994 461.302,932.954 466.482 C 932.866 478.061,929.409 479.824,911.926 477.208 C 894.737 474.636,827.556 453.902,817.914 448.193 C 813.515 445.588,812.769 442.881,814.403 435.443 C 815.543 430.249,818.057 425.972,819.988 425.937 C 821.920 425.903,848.138 433.657,878.250 443.170 M342.000 495.194 C 385.725 508.622,443.100 526.081,469.500 533.991 C 495.900 541.901,559.350 561.252,610.500 576.994 C 661.650 592.735,754.125 621.103,816.000 640.033 C 877.875 658.964,971.025 687.542,1023.000 703.539 C 1074.975 719.537,1137.750 738.668,1162.500 746.054 C 1223.498 764.257,1371.424 809.791,1377.000 812.081 C 1380.935 813.697,1380.914 814.072,1376.832 815.072 C 1374.264 815.701,1352.664 810.167,1328.832 802.774 C 1304.999 795.381,1260.525 781.954,1230.000 772.935 C 1199.475 763.916,1139.400 745.712,1096.500 732.481 C 1053.600 719.250,1005.000 704.412,988.500 699.507 C 940.568 685.261,761.408 630.758,715.500 616.457 C 692.400 609.261,663.375 600.465,651.000 596.911 C 638.625 593.357,578.550 575.169,517.500 556.493 C 456.450 537.817,385.575 516.246,360.000 508.558 C 259.575 478.371,255.000 476.799,255.000 472.465 C 255.000 470.113,256.688 468.771,258.750 469.484 C 260.813 470.196,298.275 481.766,342.000 495.194 M309.193 505.217 C 337.962 514.136,391.200 530.421,427.500 541.406 C 548.890 578.140,621.830 600.268,711.000 627.413 C 850.789 669.967,929.840 693.991,994.500 713.570 C 1049.169 730.124,1092.574 743.328,1303.500 807.567 C 1341.450 819.125,1373.024 829.087,1373.664 829.705 C 1375.280 831.264,1367.645 857.865,1365.137 859.415 C 1362.766 860.881,1348.686 856.623,993.000 746.877 C 944.325 731.858,884.925 713.714,861.000 706.557 C 837.075 699.400,786.450 683.827,748.500 671.950 C 710.550 660.074,668.025 647.029,654.000 642.961 C 639.975 638.894,606.900 628.809,580.500 620.551 C 554.100 612.293,515.625 600.334,495.000 593.974 C 457.668 582.464,266.287 523.668,252.000 519.320 C 246.901 517.768,244.201 514.518,243.565 509.167 C 242.465 499.904,247.592 489.000,253.048 489.000 C 255.159 489.000,280.424 496.297,309.193 505.217 M1272.048 565.425 C 1298.889 574.459,1321.496 582.496,1322.285 583.285 C 1323.075 584.075,1322.816 588.324,1321.711 592.729 C 1319.920 599.864,1318.655 600.539,1310.100 598.925 C 1293.154 595.727,1214.359 570.559,1211.105 567.305 C 1207.018 563.218,1213.195 549.000,1219.059 549.000 C 1221.362 549.000,1245.207 556.391,1272.048 565.425 M1735.500 680.050 C 1750.350 686.697,1766.258 693.043,1770.851 694.151 C 1775.444 695.259,1786.919 699.689,1796.351 703.995 L 1813.500 711.825 1803.000 714.450 C 1797.225 715.894,1781.025 716.279,1767.000 715.305 C 1731.953 712.872,1717.902 709.240,1577.427 666.305 C 1549.887 657.887,1524.110 651.000,1520.146 651.000 C 1516.183 651.000,1505.158 653.677,1495.647 656.950 C 1486.136 660.222,1469.569 663.799,1458.832 664.899 L 1439.310 666.899 1441.758 659.700 C 1443.104 655.740,1444.271 649.448,1444.353 645.717 C 1444.436 641.894,1446.000 639.509,1447.938 640.253 C 1476.822 651.337,1485.997 649.105,1479.737 632.518 C 1477.786 627.350,1476.877 622.008,1477.717 620.648 C 1478.558 619.289,1477.178 614.179,1474.652 609.293 C 1470.242 600.766,1470.327 600.371,1476.779 599.455 C 1486.429 598.084,1703.346 665.656,1735.500 680.050 M1596.229 684.170 C 1699.389 716.635,1734.958 725.095,1782.973 728.587 C 1808.839 730.467,1826.902 733.194,1830.973 735.831 C 1834.563 738.157,1846.451 740.881,1857.392 741.884 C 1888.396 744.726,1969.356 769.290,1976.637 778.063 C 1978.213 779.961,1987.174 801.761,1996.550 826.507 C 2005.927 851.253,2014.861 873.863,2016.405 876.750 C 2019.634 882.792,2028.000 883.848,2028.000 878.214 C 2028.000 876.132,2019.864 853.667,2009.921 828.293 C 1999.977 802.919,1992.584 781.416,1993.492 780.508 C 1997.668 776.332,2005.289 791.372,2022.754 838.261 C 2039.794 884.010,2048.118 898.882,2053.609 893.391 C 2054.652 892.348,2047.237 869.610,2037.131 842.861 C 2027.026 816.113,2019.165 793.005,2019.663 791.510 C 2022.464 783.107,2032.075 802.253,2047.392 846.750 C 2063.393 893.230,2068.922 903.026,2074.271 894.370 C 2075.165 892.924,2069.068 872.551,2060.722 849.097 C 2052.375 825.643,2046.245 805.755,2047.098 804.902 C 2048.909 803.091,2051.741 809.806,2071.678 863.187 C 2079.830 885.015,2088.239 903.555,2090.364 904.387 C 2098.910 907.731,2096.799 895.485,2082.304 857.623 C 2073.941 835.776,2067.489 817.511,2067.968 817.032 C 2068.446 816.554,2073.486 817.448,2079.169 819.020 C 2091.581 822.453,2096.970 830.288,2099.592 848.714 C 2102.266 867.506,2111.105 869.021,2127.078 853.424 C 2138.024 842.736,2138.552 842.557,2141.717 848.471 C 2146.922 858.196,2145.642 861.000,2136.000 861.000 C 2118.021 861.000,2108.991 879.624,2109.090 916.500 C 2109.161 942.682,2112.485 957.322,2124.420 984.015 C 2131.186 999.146,2135.365 1005.000,2139.402 1005.000 C 2146.966 1005.000,2146.667 1003.417,2133.953 976.172 C 2123.507 953.789,2122.894 950.791,2122.703 921.104 L 2122.500 889.708 2131.006 886.685 C 2137.977 884.207,2140.035 884.595,2142.405 888.831 C 2143.996 891.674,2147.021 894.000,2149.126 894.000 C 2151.232 894.000,2156.059 897.305,2159.854 901.344 C 2163.649 905.384,2170.618 909.538,2175.342 910.575 C 2180.066 911.613,2184.701 913.708,2185.643 915.231 C 2188.373 919.649,2218.025 918.435,2232.373 913.318 C 2245.036 908.801,2271.015 909.552,2270.989 914.434 C 2270.983 915.570,2259.827 920.880,2246.198 926.234 C 2213.373 939.128,2186.600 955.085,2166.272 973.872 C 2146.448 992.192,2145.640 990.323,2185.663 1018.693 C 2209.646 1035.693,2227.833 1053.134,2235.907 1066.875 C 2237.143 1068.978,2235.246 1070.250,2230.871 1070.250 C 2226.320 1070.250,2222.058 1067.216,2218.756 1061.625 C 2213.362 1052.494,2209.652 1050.899,2206.327 1056.281 C 2205.071 1058.312,2199.491 1054.843,2191.676 1047.173 C 2184.720 1040.346,2177.133 1035.432,2174.777 1036.227 C 2172.181 1037.102,2166.059 1031.837,2159.204 1022.835 C 2147.414 1007.350,2142.981 1004.952,2140.088 1012.492 C 2137.290 1019.784,2155.832 1045.278,2181.485 1069.410 C 2208.776 1095.084,2213.835 1097.860,2253.000 1108.654 C 2323.958 1128.210,2347.596 1138.959,2369.122 1161.463 C 2374.415 1166.996,2380.722 1177.126,2383.138 1183.974 C 2387.266 1195.673,2393.599 1269.244,2390.199 1266.000 C 2389.335 1265.175,2387.076 1249.650,2385.180 1231.500 C 2380.936 1190.864,2373.850 1174.425,2356.487 1164.932 C 2337.166 1154.368,2288.408 1143.000,2262.422 1143.001 C 2210.741 1143.002,2141.964 1164.663,2103.937 1192.915 L 2094.374 1200.020 2096.044 1189.730 C 2099.625 1167.662,2069.870 1154.857,2053.364 1171.364 C 2041.005 1183.723,2045.611 1200.812,2063.262 1208.089 L 2074.500 1212.723 2048.775 1238.611 C 2023.400 1264.147,1999.413 1296.999,1974.016 1341.000 C 1966.873 1353.375,1956.022 1367.843,1949.903 1373.151 C 1942.982 1379.155,1936.174 1389.360,1931.891 1400.151 C 1915.070 1442.533,1891.457 1473.861,1864.370 1489.735 C 1834.807 1507.060,1815.324 1512.644,1779.000 1514.203 C 1747.466 1515.557,1741.019 1514.844,1704.000 1505.906 C 1632.004 1488.524,1597.364 1472.047,1565.997 1440.262 C 1544.164 1418.140,1525.632 1386.027,1522.564 1365.000 C 1518.864 1339.638,1534.268 1254.000,1542.531 1254.000 C 1548.568 1254.000,1548.022 1264.182,1540.337 1294.873 C 1529.340 1338.792,1530.825 1364.505,1546.231 1396.946 C 1557.526 1420.730,1569.421 1437.190,1577.636 1440.402 C 1580.516 1441.528,1585.253 1439.785,1589.250 1436.129 L 1596.000 1429.954 1596.000 1436.042 C 1596.000 1442.869,1622.779 1469.629,1636.938 1476.951 C 1641.938 1479.537,1662.110 1486.543,1681.764 1492.520 C 1744.146 1511.492,1804.539 1509.965,1852.534 1488.202 C 1879.694 1475.888,1901.986 1451.921,1919.208 1416.518 C 1931.187 1391.895,1933.229 1384.905,1934.411 1364.489 C 1935.668 1342.779,1935.043 1339.415,1926.555 1322.173 C 1921.398 1311.697,1910.539 1296.844,1901.916 1288.471 C 1884.698 1271.752,1883.931 1270.935,1874.278 1259.016 C 1868.833 1252.292,1860.929 1248.714,1836.181 1241.766 C 1819.006 1236.945,1802.085 1233.000,1798.577 1233.000 C 1795.070 1233.000,1790.918 1231.825,1789.350 1230.389 C 1787.783 1228.953,1776.375 1224.770,1764.000 1221.093 C 1751.625 1217.416,1733.454 1211.029,1723.620 1206.900 C 1713.786 1202.772,1690.926 1196.815,1672.820 1193.664 C 1642.297 1188.352,1638.580 1188.273,1621.774 1192.579 C 1598.422 1198.561,1581.151 1208.806,1568.265 1224.318 C 1555.933 1239.164,1546.707 1238.718,1543.347 1223.114 C 1538.361 1199.955,1518.534 1173.902,1495.966 1160.856 C 1478.991 1151.044,1422.797 1132.552,1400.170 1129.333 C 1392.289 1128.212,1381.489 1124.338,1376.170 1120.723 C 1366.792 1114.350,1366.506 1113.522,1366.709 1093.326 C 1367.077 1056.712,1374.444 996.000,1378.520 996.000 C 1380.554 996.000,1406.356 1002.841,1435.859 1011.203 C 1471.458 1021.292,1491.195 1028.379,1494.538 1032.273 C 1497.309 1035.501,1500.996 1037.772,1502.731 1037.321 C 1504.466 1036.869,1508.304 1040.428,1511.260 1045.229 C 1515.753 1052.526,1521.300 1055.306,1545.067 1062.172 C 1578.330 1071.780,1831.194 1146.495,1860.528 1155.382 C 1886.362 1163.209,1890.486 1161.083,1898.977 1135.569 C 1904.992 1117.495,1906.442 1115.643,1918.901 1110.132 C 1958.730 1092.514,1997.719 1020.718,2008.530 945.084 C 2014.010 906.751,2007.782 875.772,1992.924 867.458 C 1988.495 864.979,1988.269 862.775,1991.152 850.180 C 1993.906 838.145,1993.627 833.976,1989.473 825.121 C 1985.359 816.349,1982.665 814.332,1973.996 813.536 C 1968.223 813.006,1962.218 811.318,1960.650 809.786 C 1959.083 808.254,1954.995 807.000,1951.568 807.000 C 1948.140 807.000,1942.444 804.975,1938.911 802.501 C 1935.378 800.026,1930.303 798.840,1927.632 799.864 C 1924.920 800.905,1920.231 799.424,1917.009 796.508 C 1913.417 793.257,1908.651 791.922,1904.371 792.968 C 1900.548 793.902,1894.917 792.729,1891.677 790.324 C 1888.474 787.946,1883.842 786.000,1881.383 786.000 C 1876.660 786.000,1693.303 730.690,1657.509 718.468 C 1638.996 712.147,1635.562 711.777,1628.426 715.337 C 1621.013 719.035,1620.258 718.861,1619.418 713.263 C 1618.913 709.903,1615.473 706.041,1611.774 704.682 C 1606.498 702.744,1603.495 703.885,1597.852 709.970 L 1590.658 717.730 1529.579 698.847 C 1495.985 688.462,1467.218 678.848,1465.650 677.482 C 1464.047 676.087,1466.673 674.943,1471.650 674.869 C 1476.518 674.796,1487.250 672.277,1495.500 669.270 C 1503.750 666.263,1514.653 663.622,1519.729 663.401 C 1524.804 663.180,1559.229 672.527,1596.229 684.170 M1598.153 727.604 C 1608.008 725.131,1607.513 731.201,1593.449 785.261 C 1588.068 805.948,1582.500 808.470,1582.500 790.220 C 1582.500 775.669,1574.942 774.080,1570.500 787.697 C 1568.850 792.756,1565.475 799.817,1563.000 803.390 L 1558.500 809.885 1524.000 799.278 C 1505.025 793.444,1471.427 783.385,1449.338 776.924 C 1427.250 770.463,1408.745 764.745,1408.218 764.218 C 1405.654 761.654,1418.757 727.875,1423.302 725.331 C 1429.906 721.635,1439.757 724.050,1519.164 748.823 C 1558.321 761.039,1582.886 767.314,1584.650 765.550 C 1586.203 763.997,1588.163 757.501,1589.006 751.113 L 1590.539 739.500 1558.019 729.274 C 1540.134 723.650,1506.912 713.331,1484.194 706.345 C 1445.582 694.470,1434.000 689.342,1434.000 684.120 C 1434.000 682.941,1469.394 692.629,1512.653 705.649 C 1560.658 720.098,1593.974 728.653,1598.153 727.604 M1706.055 746.056 C 1742.661 757.239,1772.067 766.933,1771.402 767.598 C 1769.711 769.289,1728.025 757.649,1679.415 741.913 C 1637.000 728.182,1632.571 727.967,1623.255 739.192 C 1618.595 744.808,1621.583 755.212,1628.403 757.116 C 1757.805 793.241,1841.120 817.387,1843.350 819.412 C 1848.045 823.675,1819.987 822.371,1797.936 817.301 C 1786.696 814.717,1755.225 805.426,1728.000 796.655 C 1700.775 787.883,1667.443 777.683,1653.929 773.988 C 1624.670 765.986,1615.092 757.735,1616.645 741.867 C 1617.151 736.692,1629.259 726.026,1634.816 725.861 C 1637.392 725.785,1669.450 734.872,1706.055 746.056 M2099.751 736.704 C 2108.464 739.291,2114.857 742.143,2113.958 743.042 C 2111.701 745.299,2082.370 738.026,2080.314 734.699 C 2077.985 730.931,2081.548 731.298,2099.751 736.704 M1620.856 775.211 C 1624.510 777.528,1638.975 782.339,1653.000 785.904 C 1667.025 789.468,1698.750 798.955,1723.500 806.985 C 1788.334 828.020,1798.071 830.592,1826.027 834.066 C 1859.445 838.218,1872.477 834.877,1879.349 820.395 C 1882.246 814.290,1883.513 807.191,1882.356 803.547 C 1880.096 796.425,1883.808 797.673,1895.106 807.834 C 1899.469 811.758,1904.025 813.170,1908.525 811.993 C 1913.176 810.777,1917.547 812.287,1922.296 816.748 C 1928.021 822.126,1930.250 822.663,1934.871 819.777 C 1939.343 816.984,1941.263 817.202,1944.285 820.843 C 1946.373 823.359,1950.488 824.788,1953.430 824.018 C 1956.372 823.249,1960.141 824.260,1961.805 826.265 C 1966.212 831.575,1961.042 870.883,1953.093 892.500 C 1949.454 902.400,1945.761 912.863,1944.888 915.750 C 1944.015 918.638,1940.420 921.014,1936.900 921.031 C 1932.265 921.053,1928.958 924.569,1924.910 933.781 L 1919.320 946.500 1916.480 936.387 C 1913.828 926.944,1912.967 926.383,1903.482 927.922 C 1893.413 929.556,1893.316 929.462,1892.412 917.143 C 1891.600 906.071,1890.518 904.497,1882.500 902.715 C 1877.550 901.615,1868.481 898.529,1862.346 895.857 C 1848.125 889.664,1836.434 889.678,1829.563 895.896 C 1824.508 900.470,1823.970 900.312,1821.376 893.489 C 1819.148 887.628,1813.060 884.339,1790.550 876.835 C 1747.542 862.499,1692.173 846.293,1675.500 843.161 C 1667.250 841.611,1649.846 836.842,1636.825 832.563 C 1623.804 828.284,1611.821 825.226,1610.196 825.768 C 1605.988 827.171,1593.157 863.917,1595.104 868.991 C 1595.997 871.318,1600.276 875.029,1604.614 877.238 C 1615.311 882.685,1687.731 904.496,1735.500 916.657 C 1795.154 931.844,1820.526 944.954,1828.859 964.895 C 1833.310 975.550,1834.967 976.513,1841.610 972.304 C 1844.071 970.745,1853.102 971.515,1864.110 974.222 C 1874.225 976.708,1885.471 978.596,1889.101 978.417 C 1892.732 978.238,1896.524 979.421,1897.528 981.046 C 1898.533 982.671,1903.999 984.000,1909.677 984.000 C 1923.037 984.000,1922.985 985.838,1908.312 1032.871 C 1889.915 1091.839,1870.309 1128.000,1856.733 1128.000 C 1852.895 1128.000,1851.000 1130.098,1851.000 1134.350 C 1851.000 1138.965,1849.566 1140.293,1845.750 1139.209 C 1797.860 1125.611,1794.574 1124.121,1792.790 1115.200 C 1789.874 1100.621,1776.507 1091.336,1742.711 1080.414 C 1725.545 1074.866,1688.550 1062.430,1660.500 1052.778 C 1632.450 1043.126,1598.025 1031.773,1584.000 1027.548 C 1569.975 1023.323,1556.695 1018.732,1554.489 1017.345 C 1551.237 1015.300,1551.951 1010.164,1558.267 990.170 C 1566.322 964.671,1566.068 958.498,1557.060 960.853 C 1552.377 962.078,1552.144 961.104,1554.937 952.000 C 1557.275 944.385,1559.281 942.288,1562.788 943.793 C 1565.380 944.906,1595.175 955.012,1629.000 966.251 C 1703.217 990.913,1760.744 1007.212,1782.653 1009.787 C 1797.026 1011.477,1799.826 1010.862,1807.385 1004.360 C 1813.941 998.721,1815.483 995.352,1814.066 989.764 C 1811.348 979.050,1805.013 976.269,1746.659 960.167 C 1717.421 952.099,1671.225 937.888,1644.000 928.588 C 1606.151 915.658,1591.245 911.892,1580.670 912.589 C 1567.187 913.477,1566.896 913.312,1569.030 906.000 C 1572.960 892.534,1580.318 876.775,1583.631 874.728 C 1588.721 871.582,1604.502 817.747,1602.857 809.142 C 1601.508 802.084,1609.649 771.000,1612.847 771.000 C 1613.597 771.000,1617.201 772.895,1620.856 775.211 M2095.877 775.401 C 2099.235 784.151,2095.106 786.635,2090.044 778.910 C 2085.503 771.978,2085.439 771.000,2089.525 771.000 C 2092.090 771.000,2094.948 772.980,2095.877 775.401 M1483.500 799.112 L 1555.500 821.003 1554.458 829.752 C 1553.885 834.563,1552.870 839.065,1552.202 839.756 C 1551.534 840.447,1516.903 830.861,1475.244 818.453 C 1408.836 798.674,1399.610 795.192,1400.393 790.197 C 1401.965 780.161,1403.721 776.997,1407.656 777.111 C 1409.770 777.171,1443.900 787.072,1483.500 799.112 M2082.000 789.941 C 2082.000 791.477,2079.975 791.054,2077.500 789.000 C 2075.025 786.946,2073.043 783.068,2073.095 780.383 C 2073.176 776.281,2073.895 776.431,2077.595 781.323 C 2080.018 784.526,2082.000 788.404,2082.000 789.941 M1580.998 820.497 C 1586.086 826.629,1579.321 843.690,1572.329 842.358 C 1566.345 841.219,1564.515 830.380,1568.917 822.155 C 1572.832 814.840,1575.948 814.412,1580.998 820.497 M1407.000 834.782 C 1411.125 834.831,1430.025 839.321,1449.000 844.760 C 1467.975 850.200,1494.975 857.521,1509.000 861.029 C 1523.025 864.537,1536.144 869.008,1538.153 870.964 C 1542.532 875.227,1535.621 905.560,1521.626 943.500 C 1511.116 971.992,1507.566 973.523,1479.463 961.695 C 1458.612 952.919,1405.550 937.207,1386.750 934.243 L 1374.000 932.233 1374.000 903.878 C 1374.000 866.554,1384.109 829.672,1393.500 832.736 C 1396.800 833.812,1402.875 834.733,1407.000 834.782 M1894.513 871.900 C 1891.306 882.931,1890.620 889.820,1892.539 891.739 C 1897.124 896.324,1901.551 891.809,1904.990 879.038 L 1908.142 867.330 1922.321 871.632 C 1930.120 873.999,1936.941 875.950,1937.480 875.968 C 1938.019 875.985,1938.055 880.694,1937.561 886.431 C 1936.527 898.437,1941.239 905.455,1946.252 899.377 C 1948.011 897.245,1949.912 889.505,1950.475 882.177 L 1951.500 868.855 1930.500 862.078 C 1900.318 852.340,1900.189 852.375,1894.513 871.900 M1994.515 889.182 C 2001.463 903.442,1998.962 957.000,1991.349 957.000 C 1989.270 957.000,1988.836 951.367,1990.092 940.680 C 1993.015 915.814,1981.604 913.026,1978.135 937.759 C 1975.527 956.356,1974.241 959.223,1970.885 953.916 C 1969.349 951.487,1968.068 946.125,1968.039 942.000 C 1967.957 930.411,1984.122 878.898,1987.500 879.981 C 1989.150 880.510,1992.307 884.651,1994.515 889.182 M1558.057 902.563 C 1555.689 912.448,1555.160 913.071,1551.200 910.623 C 1547.790 908.516,1546.796 896.204,1549.793 893.207 C 1554.327 888.673,1559.878 894.957,1558.057 902.563 M1811.454 910.500 C 1813.334 914.625,1816.250 918.000,1817.936 918.000 C 1819.621 918.000,1821.000 920.025,1821.000 922.500 C 1821.000 930.018,1807.499 927.907,1803.108 919.702 C 1799.201 912.401,1800.505 903.000,1805.424 903.000 C 1806.861 903.000,1809.575 906.375,1811.454 910.500 M1549.482 923.970 C 1550.491 925.604,1544.496 947.935,1536.159 973.595 C 1527.821 999.254,1521.000 1022.279,1521.000 1024.761 C 1521.000 1033.363,1535.459 1043.662,1555.930 1049.641 C 1567.244 1052.946,1614.975 1067.117,1662.000 1081.132 C 1709.025 1095.148,1753.575 1108.235,1761.000 1110.215 C 1768.425 1112.195,1772.872 1114.399,1770.882 1115.113 C 1768.893 1115.827,1751.343 1111.642,1731.882 1105.812 C 1712.422 1099.981,1670.850 1087.651,1639.500 1078.410 C 1517.778 1042.531,1524.714 1045.149,1518.292 1032.669 C 1513.061 1022.504,1510.431 1020.886,1489.022 1014.663 C 1431.532 997.953,1389.980 986.161,1383.750 984.788 C 1379.054 983.753,1377.000 981.125,1377.000 976.150 C 1377.000 966.970,1380.900 967.001,1418.130 976.472 C 1455.391 985.952,1490.383 999.599,1499.209 1008.093 C 1508.458 1016.995,1512.859 1012.879,1519.413 989.199 C 1524.716 970.038,1533.124 943.918,1538.710 929.250 C 1541.928 920.799,1546.221 918.695,1549.482 923.970 M1595.444 940.466 C 1604.214 943.296,1610.901 946.099,1610.304 946.696 C 1607.230 949.770,1566.000 933.720,1566.000 929.449 C 1566.000 928.026,1569.038 928.765,1572.750 931.091 C 1576.463 933.417,1586.675 937.636,1595.444 940.466 M1663.615 962.876 C 1688.302 971.058,1706.303 977.808,1703.618 977.876 C 1700.933 977.944,1681.358 972.147,1660.118 964.994 C 1614.186 949.525,1611.580 948.544,1615.615 948.237 C 1617.329 948.107,1638.929 954.694,1663.615 962.876 M1758.000 989.876 C 1767.075 992.905,1772.475 995.503,1770.000 995.648 C 1767.525 995.793,1757.400 993.304,1747.500 990.117 C 1737.600 986.930,1732.200 984.333,1735.500 984.345 C 1738.800 984.357,1748.925 986.846,1758.000 989.876 M1957.714 1004.250 C 1954.953 1016.015,1929.176 1069.176,1927.193 1067.193 C 1923.232 1063.232,1941.261 1011.570,1950.730 999.750 C 1955.985 993.191,1959.742 995.611,1957.714 1004.250 M1964.833 1043.172 C 1955.702 1061.180,1947.261 1072.667,1934.426 1084.550 C 1924.653 1093.598,1915.047 1100.921,1913.079 1100.824 C 1911.111 1100.727,1912.119 1099.039,1915.320 1097.074 C 1931.415 1087.190,1945.566 1064.476,1969.879 1009.500 L 1975.185 997.500 1976.329 1007.872 C 1977.183 1015.619,1974.274 1024.552,1964.833 1043.172 M1843.821 1027.745 C 1840.755 1035.735,1841.788 1046.089,1845.998 1049.584 C 1848.197 1051.409,1858.963 1055.254,1869.921 1058.128 C 1892.190 1063.968,1896.220 1062.474,1897.022 1048.078 C 1897.611 1037.510,1892.556 1034.892,1888.506 1043.667 C 1885.582 1049.999,1876.545 1051.343,1876.454 1045.459 C 1876.429 1043.832,1875.210 1040.608,1873.746 1038.296 C 1871.518 1034.776,1870.488 1034.906,1867.423 1039.098 C 1863.015 1045.126,1853.536 1042.458,1854.219 1035.381 C 1855.111 1026.152,1853.991 1023.000,1849.821 1023.000 C 1847.522 1023.000,1844.822 1025.135,1843.821 1027.745 M1829.882 1078.855 C 1824.058 1096.357,1823.724 1100.073,1827.066 1110.199 C 1829.151 1116.517,1832.826 1122.442,1835.232 1123.366 C 1843.352 1126.482,1867.714 1110.342,1875.036 1096.996 C 1878.806 1090.123,1883.954 1082.106,1886.475 1079.179 C 1889.831 1075.283,1890.167 1072.967,1887.731 1070.531 C 1882.483 1065.283,1875.791 1069.688,1869.106 1082.792 C 1862.581 1095.582,1848.522 1105.163,1840.690 1102.158 C 1834.997 1099.973,1834.870 1102.356,1841.799 1081.354 C 1847.788 1063.200,1847.557 1059.000,1840.568 1059.000 C 1838.206 1059.000,1833.708 1067.359,1829.882 1078.855 M2244.000 1080.000 C 2245.766 1083.300,2246.536 1086.000,2245.711 1086.000 C 2244.886 1086.000,2242.766 1083.300,2241.000 1080.000 C 2239.234 1076.700,2238.464 1074.000,2239.289 1074.000 C 2240.114 1074.000,2242.234 1076.700,2244.000 1080.000 M1889.755 1126.487 C 1886.517 1136.302,1882.844 1145.356,1881.594 1146.606 C 1880.343 1147.857,1874.020 1147.417,1867.542 1145.629 L 1855.766 1142.377 1865.326 1138.357 C 1870.584 1136.147,1879.207 1128.207,1884.488 1120.714 C 1889.770 1113.221,1894.440 1107.440,1894.866 1107.866 C 1895.293 1108.293,1892.993 1116.672,1889.755 1126.487 M1622.250 1117.595 C 1617.375 1120.311,1614.000 1124.740,1614.000 1128.421 C 1614.000 1133.568,1615.304 1134.323,1621.500 1132.768 C 1628.568 1130.994,1629.000 1131.580,1629.000 1142.943 C 1629.000 1156.229,1628.554 1156.646,1620.034 1151.325 C 1615.351 1148.400,1613.369 1148.443,1610.325 1151.534 C 1604.769 1157.175,1620.825 1170.665,1631.609 1169.415 C 1639.079 1168.549,1639.548 1167.500,1640.393 1149.750 C 1641.288 1130.965,1642.909 1128.109,1649.139 1134.339 C 1653.002 1138.202,1659.000 1135.434,1659.000 1129.788 C 1659.000 1117.978,1635.535 1110.192,1622.250 1117.595 M1650.564 1151.879 C 1642.881 1162.271,1642.235 1167.000,1648.500 1167.000 C 1654.959 1167.000,1665.000 1156.046,1665.000 1149.000 C 1665.000 1140.280,1658.126 1141.650,1650.564 1151.879 M1773.750 1162.987 C 1769.088 1164.868,1768.777 1173.000,1773.367 1173.000 C 1775.832 1173.000,1775.818 1174.104,1773.316 1177.120 C 1771.435 1179.386,1770.739 1183.436,1771.769 1186.120 C 1774.088 1192.162,1789.712 1192.683,1791.972 1186.793 C 1793.995 1181.522,1791.578 1179.000,1784.500 1179.000 C 1781.475 1179.000,1779.000 1177.543,1779.000 1175.762 C 1779.000 1173.724,1782.338 1173.256,1788.000 1174.500 C 1794.606 1175.951,1797.000 1175.376,1797.000 1172.338 C 1797.000 1163.242,1785.039 1158.432,1773.750 1162.987 M2081.658 1186.813 C 2084.985 1187.863,2084.742 1189.313,2080.443 1194.063 C 2073.690 1201.524,2069.338 1201.555,2062.671 1194.189 C 2053.151 1183.670,2061.462 1180.441,2081.658 1186.813 M1693.500 1211.642 L 1702.500 1213.574 1702.500 1249.956 C 1702.500 1279.516,1703.429 1287.386,1707.451 1291.920 C 1715.767 1301.292,1728.000 1334.100,1728.000 1347.029 C 1728.000 1368.265,1718.658 1381.591,1695.694 1393.113 C 1671.940 1405.030,1650.989 1410.000,1624.501 1410.000 C 1609.567 1410.000,1604.665 1411.131,1602.451 1415.087 C 1599.875 1419.691,1598.589 1419.399,1588.889 1412.000 C 1562.675 1392.006,1549.970 1363.631,1549.710 1324.500 C 1549.548 1300.233,1550.477 1295.527,1558.892 1278.000 C 1575.004 1244.442,1600.436 1220.727,1628.377 1213.206 C 1643.230 1209.208,1678.244 1208.367,1693.500 1211.642 M1995.750 1214.238 C 1988.034 1216.834,1991.789 1226.208,2001.308 1228.112 C 2013.071 1230.464,2016.872 1228.235,2013.103 1221.193 C 2010.001 1215.396,2001.927 1212.160,1995.750 1214.238 M1777.255 1237.821 C 1779.865 1238.822,1782.000 1241.443,1782.000 1243.644 C 1782.000 1249.838,1787.158 1251.577,1793.599 1247.554 C 1798.350 1244.587,1804.117 1245.154,1824.471 1250.590 C 1870.740 1262.947,1873.067 1265.174,1855.676 1280.443 C 1847.499 1287.623,1840.560 1290.280,1822.293 1293.227 C 1791.624 1298.174,1786.386 1303.003,1778.613 1333.500 C 1771.329 1362.079,1756.329 1388.092,1739.060 1402.092 C 1720.323 1417.283,1694.165 1431.017,1684.257 1430.867 C 1675.553 1430.736,1675.572 1430.697,1687.457 1424.433 C 1694.033 1420.967,1707.124 1410.053,1716.549 1400.179 C 1738.488 1377.195,1744.970 1358.940,1743.420 1324.500 C 1740.208 1253.087,1741.594 1240.267,1752.755 1238.117 C 1763.801 1235.989,1772.215 1235.887,1777.255 1237.821 M1901.206 1320.000 C 1907.764 1333.046,1909.498 1340.643,1909.491 1356.293 C 1909.484 1373.380,1907.869 1379.265,1897.678 1399.343 C 1891.186 1412.134,1882.728 1424.661,1878.883 1427.180 C 1874.035 1430.357,1872.139 1434.138,1872.696 1439.515 C 1873.394 1446.244,1872.111 1447.513,1863.000 1449.118 C 1857.225 1450.135,1844.241 1455.179,1834.146 1460.327 C 1791.514 1482.067,1734.675 1480.418,1679.250 1455.832 C 1669.763 1451.624,1662.000 1447.229,1662.000 1446.066 C 1662.000 1444.903,1668.862 1443.709,1677.249 1443.412 C 1685.637 1443.115,1697.252 1440.886,1703.062 1438.458 C 1720.660 1431.106,1753.772 1407.677,1762.220 1396.600 C 1773.555 1381.740,1787.248 1351.575,1791.115 1332.947 C 1794.543 1316.432,1800.207 1308.000,1807.872 1308.000 C 1823.089 1308.000,1854.625 1297.739,1863.573 1289.876 L 1873.500 1281.153 1883.206 1292.326 C 1888.545 1298.472,1896.645 1310.925,1901.206 1320.000 " stroke="none" fill="black" fill-rule="evenodd"/></svg>